<svg width="50" height="50" viewBox="0 0 50 50" fill="none" xmlns="http://www.w3.org/2000/svg">
<g clip-path="url(#clip0_102_2)">
<path d="M38.4195 24.8984C38.4195 32.2537 32.4569 38.2163 25.1016 38.2163C17.7463 38.2163 11.7837 32.2537 11.7837 24.8984C11.7837 17.5431 17.7463 11.5805 25.1016 11.5805C32.4569 11.5805 38.4195 17.5431 38.4195 24.8984ZM24.9323 8.73984C25.7744 8.73984 26.4567 8.05752 26.4567 7.21545V1.52439C26.4567 0.682317 25.7744 0 24.9323 0C24.0902 0 23.4079 0.682317 23.4079 1.52439V7.21545C23.4079 8.05752 24.0902 8.73984 24.9323 8.73984ZM37.4886 13.9102C37.8787 13.9102 38.2689 13.7614 38.5667 13.4636L41.5848 10.4453C42.1801 9.85 42.1801 8.88476 41.5846 8.28963C40.9894 7.69451 40.0242 7.69431 39.4289 8.28984L36.4108 11.3081C35.8154 11.9035 35.8154 12.8687 36.411 13.4638C36.7083 13.7612 37.0986 13.9102 37.4886 13.9102ZM38.6923 36.2073C38.0967 35.6122 37.1317 35.6122 36.5364 36.2073C35.9411 36.8028 35.9411 37.7679 36.5364 38.3632L39.5547 41.3815C39.8524 41.6791 40.2427 41.8278 40.6327 41.8278C41.0228 41.8278 41.413 41.6791 41.7108 41.3815C42.3061 40.786 42.3061 39.8209 41.7108 39.2256L38.6923 36.2073ZM11.6368 36.3331L8.6185 39.3514C8.02317 39.9469 8.02317 40.912 8.6185 41.5073C8.91626 41.8049 9.3065 41.9537 9.69654 41.9537C10.0866 41.9537 10.4768 41.8049 10.7746 41.5073L13.7929 38.489C14.3882 37.8935 14.3882 36.9285 13.7929 36.3331C13.1974 35.738 12.2323 35.738 11.6368 36.3331ZM11.511 13.5892C11.8087 13.887 12.1988 14.0358 12.589 14.0358C12.9791 14.0358 13.3693 13.887 13.6669 13.5894C14.2624 12.9941 14.2624 12.0289 13.6671 11.4337L10.649 8.41545C10.0535 7.81992 9.08821 7.82012 8.49329 8.41524C7.89776 9.01057 7.89776 9.97581 8.49309 10.5709L11.511 13.5892ZM48.4756 23.2724H47.0528H42.7846C41.9425 23.2724 41.2602 23.9547 41.2602 24.7967C41.2602 25.6388 41.9425 26.3211 42.7846 26.3211H47.0528H48.4756C49.3177 26.3211 50 25.6388 50 24.7967C50 23.9547 49.3177 23.2724 48.4756 23.2724ZM25.1356 41.0569C24.2935 41.0569 23.6112 41.7392 23.6112 42.5813V46.8496V48.4756C23.6112 49.3177 24.2935 50 25.1356 50C25.9776 50 26.66 49.3177 26.66 48.4756V46.8496V42.5813C26.66 41.7392 25.9776 41.0569 25.1356 41.0569ZM8.94309 25C8.94309 24.1579 8.26077 23.4756 7.4187 23.4756H3.15041H1.52439C0.682317 23.4756 0 24.1579 0 25C0 25.8421 0.682317 26.5244 1.52439 26.5244H3.15041H7.4187C8.26077 26.5244 8.94309 25.8421 8.94309 25Z" fill="white"/>
</g>
<defs>
<clipPath id="clip0_102_2">
<rect width="50" height="50" fill="white"/>
</clipPath>
</defs>
</svg>
